solid ascii
  facet normal 0.000000e+000 0.000000e+000 -1.000000e+000
    outer loop
      vertex   -9.228134e+001 9.252248e+001 3.620000e+002
      vertex   -1.272813e+002 9.252248e+001 3.620000e+002
      vertex   -9.228134e+001 1.275225e+002 3.620000e+002
    endloop
  endfacet
  facet normal -0.000000e+000 0.000000e+000 -1.000000e+000
    outer loop
      vertex   -9.228134e+001 1.275225e+002 3.620000e+002
      vertex   -1.272813e+002 9.252248e+001 3.620000e+002
      vertex   -1.272813e+002 1.275225e+002 3.620000e+002
    endloop
  endfacet
  facet normal -0.000000e+000 1.000000e+000 0.000000e+000
    outer loop
      vertex   -1.272813e+002 1.275225e+002 3.620000e+002
      vertex   -1.272813e+002 1.275225e+002 3.650000e+002
      vertex   -9.228134e+001 1.275225e+002 3.620000e+002
    endloop
  endfacet
  facet normal 0.000000e+000 1.000000e+000 -0.000000e+000
    outer loop
      vertex   -9.228134e+001 1.275225e+002 3.620000e+002
      vertex   -1.272813e+002 1.275225e+002 3.650000e+002
      vertex   -9.228134e+001 1.275225e+002 3.650000e+002
    endloop
  endfacet
  facet normal -1.000000e+000 0.000000e+000 0.000000e+000
    outer loop
      vertex   -1.272813e+002 9.252248e+001 3.620000e+002
      vertex   -1.272813e+002 9.252248e+001 3.650000e+002
      vertex   -1.272813e+002 1.275225e+002 3.620000e+002
    endloop
  endfacet
  facet normal -1.000000e+000 0.000000e+000 0.000000e+000
    outer loop
      vertex   -1.272813e+002 1.275225e+002 3.620000e+002
      vertex   -1.272813e+002 9.252248e+001 3.650000e+002
      vertex   -1.272813e+002 1.275225e+002 3.650000e+002
    endloop
  endfacet
  facet normal 0.000000e+000 0.000000e+000 1.000000e+000
    outer loop
      vertex   -9.228134e+001 1.275225e+002 3.650000e+002
      vertex   -1.272813e+002 1.275225e+002 3.650000e+002
      vertex   -9.228134e+001 9.252248e+001 3.650000e+002
    endloop
  endfacet
  facet normal 0.000000e+000 0.000000e+000 1.000000e+000
    outer loop
      vertex   -9.228134e+001 9.252248e+001 3.650000e+002
      vertex   -1.272813e+002 1.275225e+002 3.650000e+002
      vertex   -1.272813e+002 9.252248e+001 3.650000e+002
    endloop
  endfacet
  facet normal -0.000000e+000 -1.000000e+000 0.000000e+000
    outer loop
      vertex   -9.228134e+001 9.252248e+001 3.620000e+002
      vertex   -9.228134e+001 9.252248e+001 3.650000e+002
      vertex   -1.272813e+002 9.252248e+001 3.620000e+002
    endloop
  endfacet
  facet normal 0.000000e+000 -1.000000e+000 0.000000e+000
    outer loop
      vertex   -1.272813e+002 9.252248e+001 3.620000e+002
      vertex   -9.228134e+001 9.252248e+001 3.650000e+002
      vertex   -1.272813e+002 9.252248e+001 3.650000e+002
    endloop
  endfacet
  facet normal 1.000000e+000 0.000000e+000 -0.000000e+000
    outer loop
      vertex   -9.228134e+001 1.275225e+002 3.620000e+002
      vertex   -9.228134e+001 1.275225e+002 3.650000e+002
      vertex   -9.228134e+001 9.252248e+001 3.620000e+002
    endloop
  endfacet
  facet normal 1.000000e+000 0.000000e+000 -0.000000e+000
    outer loop
      vertex   -9.228134e+001 9.252248e+001 3.620000e+002
      vertex   -9.228134e+001 1.275225e+002 3.650000e+002
      vertex   -9.228134e+001 9.252248e+001 3.650000e+002
    endloop
  endfacet
endsolid
